<?xml version="1.0" standalone="no"?>
<!DOCTYPE svg PUBLIC "-//W3C//DTD SVG 20010904//EN"
 "http://www.w3.org/TR/2001/REC-SVG-20010904/DTD/svg10.dtd">
<svg version="1.0" xmlns="http://www.w3.org/2000/svg"
 width="155.000000pt" height="168.000000pt" viewBox="0 0 155.000000 168.000000"
 preserveAspectRatio="xMidYMid meet">

<g transform="translate(0.000000,168.000000) scale(0.100000,-0.100000)"
fill="#000000" stroke="none">
<path d="M1055 1570 c-47 -15 -103 -67 -131 -122 -18 -35 -35 -54 -59 -63 -18
-8 -43 -27 -55 -42 -19 -24 -21 -35 -15 -98 8 -80 8 -79 -73 -126 -43 -25 -48
-25 -91 -12 -25 7 -48 19 -53 26 -6 9 -12 9 -30 -2 -62 -39 -80 -44 -142 -36
-33 4 -88 9 -121 11 l-59 2 -13 66 c-20 112 -19 110 -58 79 -61 -48 -69 -162
-18 -240 13 -19 24 -23 67 -22 28 0 76 4 106 8 30 5 57 7 59 5 14 -12 -33 -74
-95 -125 -78 -63 -115 -115 -134 -188 -17 -63 -5 -61 25 4 31 65 131 184 179
214 51 32 63 28 70 -27 5 -36 16 -60 43 -91 39 -46 51 -52 161 -82 41 -11 92
-29 115 -40 22 -12 77 -28 121 -35 86 -15 149 -42 154 -65 2 -14 -24 -77 -51
-124 -100 -170 -108 -177 -143 -136 -14 17 -61 56 -104 86 -84 59 -111 94
-130 165 -7 25 -17 54 -23 65 -10 19 -11 19 -17 -5 l-7 -25 -19 34 c-24 43
-52 73 -62 67 -5 -3 -9 -22 -10 -43 -2 -32 8 -54 59 -133 34 -52 65 -96 70
-98 5 -2 9 -8 9 -14 0 -5 26 -42 58 -81 32 -40 79 -101 104 -137 51 -72 80
-100 104 -100 22 0 184 165 233 238 57 85 100 191 112 281 9 65 15 78 45 106
37 35 46 83 19 105 -8 7 -24 27 -35 46 -25 39 -17 63 29 90 16 9 36 32 45 50
9 19 23 34 33 34 54 1 68 62 39 163 -13 42 -16 74 -11 121 8 73 -1 98 -43 115
-18 8 -36 28 -50 56 -12 24 -33 52 -48 61 -30 20 -115 27 -159 14z"/>
</g>
</svg>
