<?xml version="1.0" standalone="no"?>
<!DOCTYPE svg PUBLIC "-//W3C//DTD SVG 20010904//EN"
 "http://www.w3.org/TR/2001/REC-SVG-20010904/DTD/svg10.dtd">
<svg version="1.0" xmlns="http://www.w3.org/2000/svg"
 width="590.000000pt" height="423.000000pt" viewBox="0 0 590.000000 423.000000"
 preserveAspectRatio="xMidYMid meet">

<g transform="translate(0.000000,423.000000) scale(0.100000,-0.100000)"
fill="#000000" stroke="none">
<path d="M2708 3921 c-69 -27 -102 -55 -144 -118 -33 -50 -38 -65 -42 -133 -4
-63 -1 -85 17 -124 31 -70 73 -118 133 -152 47 -26 63 -29 138 -29 96 0 147
19 211 81 60 58 84 117 84 204 0 87 -24 146 -84 204 -84 80 -212 108 -313 67z"/>
<path d="M2211 3390 c-19 -16 -33 -32 -30 -34 2 -2 21 -7 42 -11 l37 -7 0 41
c0 22 -3 41 -7 41 -5 -1 -23 -14 -42 -30z"/>
<path d="M3370 3379 l0 -41 38 7 c20 4 39 9 41 11 5 5 -60 63 -71 64 -5 0 -8
-19 -8 -41z"/>
<path d="M2104 3287 c-30 -36 -28 -37 64 -61 90 -23 92 -22 92 24 0 43 6 39
-88 59 -40 8 -43 7 -68 -22z"/>
<path d="M3455 3309 c-90 -20 -85 -16 -85 -59 0 -46 2 -47 92 -24 93 24 95 26
62 61 -27 28 -32 30 -69 22z"/>
<path d="M2020 3178 l-20 -33 23 -8 c34 -13 207 -57 223 -57 10 0 14 12 14 39
l0 39 -105 26 c-57 14 -107 26 -110 26 -3 0 -14 -15 -25 -32z"/>
<path d="M3468 3183 l-98 -25 0 -40 0 -40 38 6 c20 4 79 19 130 33 l92 26 -18
31 c-10 17 -25 32 -33 33 -7 1 -58 -10 -111 -24z"/>
<path d="M1958 3066 l-17 -34 68 -21 c37 -12 109 -32 159 -45 l92 -23 0 42 0
42 -72 17 c-40 10 -102 26 -137 37 -35 10 -66 19 -70 19 -4 0 -15 -15 -23 -34z"/>
<path d="M3590 3084 c-25 -8 -84 -24 -132 -35 l-88 -21 0 -39 c0 -46 0 -46
106 -19 116 30 204 60 204 70 0 19 -24 60 -34 59 -6 0 -31 -7 -56 -15z"/>
<path d="M1913 2955 c-10 -30 -9 -37 5 -44 24 -12 109 -38 235 -71 l107 -28 0
43 c0 41 -1 43 -37 50 -37 7 -253 67 -284 80 -11 4 -18 -4 -26 -30z"/>
<path d="M3625 2964 c-38 -12 -112 -33 -162 -45 l-93 -23 0 -42 0 -42 78 20
c42 10 121 33 175 50 l99 31 -6 31 c-4 17 -10 33 -14 37 -4 3 -38 -4 -77 -17z"/>
<path d="M1886 2848 c-13 -51 -9 -54 87 -86 50 -17 130 -40 177 -52 47 -12 91
-23 98 -25 8 -3 12 9 12 39 0 44 -1 44 -39 51 -36 6 -277 75 -312 90 -12 4
-18 -1 -23 -17z"/>
<path d="M3718 2865 c-8 -8 -264 -83 -309 -90 -38 -7 -39 -8 -39 -50 l0 -44
129 34 c108 29 237 70 249 80 2 2 0 19 -3 39 -7 34 -15 43 -27 31z"/>
<path d="M1870 2702 l0 -39 133 -41 c72 -22 152 -46 177 -52 25 -6 53 -13 63
-16 14 -5 17 1 17 38 l0 43 -82 19 c-46 10 -129 33 -184 52 -56 19 -107 34
-113 34 -6 0 -11 -17 -11 -38z"/>
<path d="M3655 2713 c-38 -13 -117 -37 -175 -52 l-105 -27 -3 -42 c-2 -23 -1
-42 1 -42 7 0 246 69 315 91 l72 24 0 37 c0 46 -6 46 -105 11z"/>
<path d="M1878 2570 l4 -40 122 -39 c106 -35 242 -71 265 -71 5 0 4 20 -2 45
-7 31 -16 45 -27 45 -25 0 -165 38 -261 71 -48 16 -90 29 -95 29 -5 0 -8 -18
-6 -40z"/>
<path d="M3630 2575 c-52 -18 -132 -41 -177 -51 l-83 -18 -8 -41 c-4 -22 -5
-41 -1 -43 11 -5 163 36 281 75 l106 35 4 39 c4 48 4 48 -122 4z"/>
<path d="M1904 2438 c8 -43 19 -52 94 -77 79 -27 289 -81 314 -81 22 0 22 2
-2 49 -18 37 -23 40 -97 56 -43 9 -129 32 -190 51 -62 19 -116 34 -119 34 -4
0 -4 -15 0 -32z"/>
<path d="M3650 2450 c-25 -10 -105 -33 -178 -51 l-132 -33 -24 -43 -25 -43 22
0 c55 0 373 91 393 113 7 7 15 27 19 45 8 38 -4 40 -75 12z"/>
<path d="M1964 2281 c24 -46 29 -50 93 -69 127 -39 308 -75 473 -96 l45 -6
-40 17 c-22 9 -66 34 -98 55 -38 25 -78 42 -115 49 -96 18 -254 57 -316 79
-33 11 -61 20 -63 20 -2 0 8 -22 21 -49z"/>
<path d="M3620 2308 c-53 -18 -267 -70 -342 -82 -21 -4 -50 -18 -66 -31 -33
-27 -123 -75 -143 -75 -7 0 -10 -2 -8 -4 11 -11 299 38 434 74 145 39 144 38
166 81 11 22 19 44 17 48 -2 5 -28 0 -58 -11z"/>
<path d="M2036 2159 c63 -83 77 -97 101 -102 16 -3 69 -14 120 -26 190 -43
306 -55 558 -55 252 0 368 12 557 55 51 12 106 24 121 27 19 3 41 21 67 55 21
29 38 52 37 53 -1 1 -61 -13 -132 -31 -220 -55 -390 -75 -647 -75 -303 0 -520
30 -773 107 -16 5 -18 3 -9 -8z"/>
<path d="M2191 1984 c6 -7 41 -33 77 -58 62 -42 76 -46 182 -63 162 -25 568
-25 730 0 107 17 120 21 183 64 76 53 98 74 70 68 -395 -86 -780 -93 -1141
-20 -82 16 -109 19 -101 9z"/>
<path d="M2560 1789 c148 -44 362 -44 510 0 l65 20 -100 -7 c-55 -4 -154 -7
-220 -7 -66 0 -165 3 -220 7 l-100 7 65 -20z"/>
<path d="M4389 1496 c-105 -22 -172 -101 -172 -201 0 -108 51 -158 215 -211
115 -36 158 -72 158 -130 0 -48 -26 -101 -63 -128 -22 -16 -43 -20 -101 -20
-68 0 -78 3 -136 38 l-63 39 -19 -23 c-25 -31 -23 -45 11 -69 64 -46 113 -61
201 -61 114 0 164 23 224 103 23 30 30 51 34 106 8 123 -27 162 -203 227 -55
20 -115 47 -132 61 -30 22 -33 29 -33 77 0 44 4 56 28 78 59 56 140 60 235 12
l51 -26 18 22 c25 31 23 42 -15 66 -66 43 -155 58 -238 40z"/>
<path d="M952 1218 l3 -283 27 -50 c63 -119 191 -178 334 -155 104 17 178 72
224 165 24 49 25 54 25 325 l0 275 -47 3 -47 3 -3 -278 -3 -278 -30 -45 c-42
-62 -94 -90 -171 -90 -72 0 -119 17 -155 57 -53 57 -54 60 -59 353 l-5 275
-48 3 -48 3 3 -283z"/>
<path d="M1657 1493 c-4 -3 -7 -177 -7 -385 l0 -378 45 0 45 0 2 302 3 302
190 -245 c262 -338 281 -359 316 -359 l29 0 0 385 0 385 -40 0 -40 0 -2 -302
-3 -303 -215 275 c-118 151 -226 287 -241 303 -26 25 -67 36 -82 20z"/>
<path d="M2407 1493 c-4 -3 -7 -177 -7 -385 l0 -378 50 0 50 0 0 385 0 385
-43 0 c-24 0 -47 -3 -50 -7z"/>
<path d="M2587 1493 c-4 -3 -7 -21 -7 -39 l0 -33 128 -3 127 -3 3 -342 2 -343
50 0 50 0 0 345 0 345 125 0 125 0 0 40 0 40 -298 0 c-164 0 -302 -3 -305 -7z"/>
<path d="M3280 1115 l0 -385 48 0 47 0 -3 385 -2 385 -45 0 -45 0 0 -385z"/>
<path d="M3490 1115 l0 -385 46 0 45 0 -3 300 c-2 165 -1 300 2 300 5 0 98
-117 205 -255 150 -195 250 -322 263 -332 9 -7 28 -13 44 -13 l28 0 0 385 0
385 -40 0 -40 0 0 -301 c0 -170 -4 -298 -9 -295 -5 3 -105 128 -222 278 -118
150 -224 283 -236 296 -13 13 -34 22 -53 22 l-30 0 0 -385z"/>
</g>
</svg>
