<svg version="1.1" id="Layer_1" xmlns="http://www.w3.org/2000/svg" xmlns:xlink="http://www.w3.org/1999/xlink" x="0px" y="0px"
	 width="100%" viewBox="0 0 1499 1076" enable-background="new 0 0 1499 1076" xml:space="preserve">
<path fill="#FFFFFF" opacity="1.000000" stroke="none" 
	d="
M1101.000000,1077.000000 
	C734.000000,1077.000000 367.500000,1077.000000 1.000000,1077.000000 
	C1.000000,718.333313 1.000000,359.666656 1.000000,1.000000 
	C500.666656,1.000000 1000.333313,1.000000 1500.000000,1.000000 
	C1500.000000,359.666656 1500.000000,718.333313 1500.000000,1077.000000 
	C1367.166626,1077.000000 1234.333374,1077.000000 1101.000000,1077.000000 
M807.152588,614.025635 
	C805.157532,614.097961 803.157532,614.103943 801.168152,614.252563 
	C775.817627,616.146606 750.471497,619.534302 725.118469,619.583557 
	C695.913147,619.640259 666.701538,616.761230 637.494568,615.123291 
	C635.516296,615.012390 633.559631,614.558472 631.582825,614.369263 
	C629.593994,614.178894 627.592590,614.119995 625.596741,614.003418 
	C649.462585,624.568848 674.368042,630.151733 700.091370,631.692932 
	C720.888184,632.939026 741.782654,632.563354 762.123230,627.733765 
	C777.625061,624.053040 792.726440,618.685669 808.114563,613.748840 
	C808.240479,613.716980 808.370544,613.695496 808.490479,613.648499 
	C808.543762,613.627563 808.576843,613.555054 808.619080,613.505920 
	C808.431152,613.718079 808.243225,613.930237 807.152588,614.025635 
M832.705200,696.498901 
	C832.757202,696.678467 832.809143,696.857971 832.621521,697.944519 
	C832.607727,760.967468 832.592773,823.990479 832.591431,887.013428 
	C832.591431,888.001709 832.758423,888.990051 832.929688,890.863892 
	C841.734070,891.281555 850.538452,891.699219 859.797546,892.138428 
	C859.797546,889.496216 859.797485,887.853088 859.797485,886.209900 
	C859.796875,824.877136 859.799438,763.544312 859.782837,702.211548 
	C859.782288,700.057434 859.592590,697.903381 858.807190,695.159424 
	C853.335205,695.121704 847.860657,694.969604 842.392151,695.090332 
	C839.229675,695.160034 836.076843,695.669373 832.705200,696.498901 
M1025.345581,698.013000 
	C1025.345581,747.516174 1025.345581,797.019348 1025.345581,846.532227 
	C1014.366272,832.643738 1003.301392,818.791138 992.391235,804.817688 
	C965.130798,769.903503 937.967285,734.913574 910.652100,700.042358 
	C909.096741,698.056702 906.655151,695.771423 904.410278,695.514954 
	C898.746887,694.867920 892.960144,695.300598 887.449585,695.300598 
	C887.449585,761.081848 887.449585,826.304932 887.449585,891.508057 
	C895.401794,891.508057 902.984131,891.508057 910.931091,891.508057 
	C910.931091,841.180908 910.931091,791.162781 910.931091,740.164917 
	C912.662415,742.034668 913.831177,743.125244 914.802063,744.370117 
	C951.748108,791.742432 988.638977,839.157959 1025.713379,886.429504 
	C1027.601685,888.837036 1030.869873,891.031128 1033.808472,891.548950 
	C1038.608887,892.394714 1043.666992,891.777527 1048.646729,891.777527 
	C1048.646729,825.935852 1048.646729,760.582458 1048.646729,694.634033 
	C1040.735718,695.075073 1033.215332,695.494263 1025.436646,696.501892 
	C1025.493286,696.708435 1025.549927,696.914978 1025.345581,698.013000 
M636.763550,205.712723 
	C625.823975,197.025940 613.674988,190.687393 599.979797,186.264465 
	C599.979797,188.378052 599.979797,189.866791 599.979797,191.355530 
	C599.981323,270.177521 599.960693,348.999512 600.030945,427.821442 
	C600.035950,433.456268 600.296875,439.152222 601.134338,444.715027 
	C606.383545,479.580872 625.735596,503.068176 659.315430,513.707642 
	C695.576721,525.196716 732.450745,524.977234 769.072021,515.442200 
	C793.401306,509.107635 812.747253,495.539429 824.197998,472.293701 
	C831.565552,457.337219 833.991150,441.369812 833.994873,424.911407 
	C834.012512,347.089294 834.002930,269.267151 834.003052,191.445038 
	C834.003052,189.819656 834.003052,188.194260 834.003052,186.468628 
	C815.873291,191.185928 792.580933,207.680847 782.091858,223.098648 
	C774.250183,234.625000 769.940491,246.913864 770.119141,261.321289 
	C770.664551,305.308197 770.376282,349.306335 770.266479,393.299713 
	C770.244873,401.943451 769.966919,410.624847 769.113525,419.220032 
	C767.432556,436.150726 759.152039,448.920929 743.590515,456.330780 
	C731.670471,462.006653 719.006592,462.542114 706.066101,461.059418 
	C686.304871,458.795166 670.633118,446.059540 666.032288,426.791809 
	C663.969360,418.152466 663.185547,409.028687 663.136108,400.117432 
	C662.866821,351.625916 663.029053,303.132080 662.957031,254.639160 
	C662.952393,251.517303 662.633423,248.279633 661.771423,245.294907 
	C657.342041,229.958313 649.643982,216.594833 636.763550,205.712723 
M792.504211,146.730347 
	C790.527405,137.696793 789.922363,128.072845 786.333008,119.733322 
	C771.842712,86.066910 738.192078,67.847916 701.961609,74.369446 
	C659.475830,82.016907 633.870667,121.001564 639.972595,159.720444 
	C647.125305,205.106598 692.269287,232.792923 735.266113,221.328552 
	C769.889648,212.096786 791.668274,183.615479 792.504211,146.730347 
M420.069305,819.500000 
	C420.069305,843.442139 420.069305,867.384277 420.069305,891.453491 
	C428.284485,891.453491 435.993439,891.453491 444.040039,891.453491 
	C444.040039,841.087769 444.040039,791.085083 444.040039,739.822937 
	C453.018799,751.309143 461.264099,761.843994 469.495514,772.389648 
	C499.316101,810.594299 529.087952,848.837341 559.060425,886.922424 
	C560.841614,889.185730 564.070801,891.133057 566.885925,891.575500 
	C571.708374,892.333557 576.736267,891.784851 581.607178,891.784851 
	C581.607178,825.874146 581.607178,760.518860 581.607178,695.406860 
	C573.621704,695.406860 566.039795,695.406860 558.584961,695.406860 
	C558.584961,746.015808 558.584961,796.266541 558.584961,847.006287 
	C546.080627,831.020325 533.908264,815.478210 521.756592,799.919739 
	C495.699219,766.557068 469.688354,733.157959 443.515686,699.886047 
	C441.887390,697.816101 439.154388,695.690002 436.707703,695.378540 
	C431.358612,694.697571 425.862976,695.167786 420.069305,695.167786 
	C420.069305,736.590332 420.069305,777.545166 420.069305,819.500000 
M244.962555,841.559814 
	C250.882034,860.000427 261.732849,874.514771 278.922638,883.880005 
	C298.299377,894.436646 318.870819,896.165100 340.235748,892.011353 
	C375.828949,885.091370 398.787018,856.176758 399.682831,821.833435 
	C400.755890,780.696411 399.985626,739.511292 400.006592,698.346985 
	C400.007080,697.389832 399.923828,696.432617 399.877747,695.434509 
	C390.855377,695.434509 382.163055,695.434509 373.216461,695.434509 
	C373.216461,697.636108 373.216461,699.452881 373.216461,701.269653 
	C373.216492,738.267822 373.288544,775.266235 373.146729,812.263855 
	C373.122650,818.547729 373.006134,825.031311 371.518890,831.074768 
	C365.216278,856.684814 347.117950,870.428772 320.683258,870.485474 
	C305.350739,870.518372 291.940887,865.937256 281.474731,854.309692 
	C272.403473,844.231934 268.227905,831.981323 268.099426,818.776917 
	C267.716705,779.449341 267.923767,740.115906 267.900574,700.784790 
	C267.899536,699.006409 267.900452,697.227966 267.900452,695.412903 
	C258.632019,695.412903 249.920685,695.412903 241.024002,695.412903 
	C241.024002,697.433228 241.024002,699.089355 241.024002,700.745483 
	C241.024017,737.743652 240.774796,774.744568 241.192810,811.738037 
	C241.302399,821.436646 243.482071,831.111877 244.962555,841.559814 
M1170.160767,879.698914 
	C1181.425537,870.467102 1188.203491,858.561768 1190.774658,844.322876 
	C1194.115723,825.820374 1190.998657,809.183838 1175.770874,796.499756 
	C1167.203491,789.363525 1156.846924,785.713867 1146.555298,781.925415 
	C1134.442261,777.466492 1122.159668,773.328186 1110.447876,767.964783 
	C1101.126099,763.695862 1095.604004,755.926697 1095.961792,744.965271 
	C1096.321533,733.943848 1101.075317,725.543091 1110.815796,720.258972 
	C1122.900635,713.703003 1135.802979,713.220215 1148.506226,717.306335 
	C1155.628418,719.597351 1162.159546,723.895081 1168.730347,727.681702 
	C1175.096313,731.350342 1178.182251,730.785400 1181.598389,724.374329 
	C1183.530518,720.748108 1185.339966,717.056519 1187.176147,713.450378 
	C1170.623901,695.820496 1136.404785,688.160950 1110.946655,695.795654 
	C1089.318481,702.281616 1069.080566,721.750427 1070.858643,750.826294 
	C1071.735352,765.165588 1076.389648,777.502930 1088.340698,785.413635 
	C1096.896606,791.077087 1106.721558,794.995422 1116.307373,798.886047 
	C1127.301025,803.347961 1139.195679,805.838623 1149.740967,811.104126 
	C1171.142700,821.790527 1172.406616,850.596680 1152.569458,864.119507 
	C1138.622559,873.627014 1123.408569,873.585205 1107.742798,869.254333 
	C1097.537598,866.432983 1089.592651,859.800537 1081.121582,854.002869 
	C1076.562134,850.882446 1072.989624,851.412964 1069.926025,855.815247 
	C1067.127441,859.836670 1064.748901,864.150085 1062.149048,868.393799 
	C1075.123535,881.311218 1090.219604,889.512939 1107.901489,892.445862 
	C1129.933594,896.100220 1150.962891,893.983154 1170.160767,879.698914 
M521.998718,535.553833 
	C528.849609,543.743958 534.038940,552.486145 546.425598,555.553528 
	C588.242798,565.908813 630.488953,572.842102 673.408875,575.700256 
	C707.013245,577.938171 740.659912,577.505188 774.200867,574.604187 
	C810.254211,571.485901 845.911804,565.595337 880.980957,556.565308 
	C888.252563,554.692932 896.672729,554.626221 901.314148,546.879944 
	C902.240295,545.334229 903.620728,544.067871 904.708252,542.610474 
	C909.402954,536.318970 914.066589,530.004272 918.741638,523.698120 
	C852.200012,542.832703 784.999512,553.172607 716.163391,553.177002 
	C647.243713,553.181396 579.941772,542.871582 513.560730,523.698792 
	C516.221497,527.464844 518.882263,531.230957 521.998718,535.553833 
M793.499329,717.595886 
	C799.787598,717.595886 806.075806,717.595886 812.508789,717.595886 
	C812.508789,709.831787 812.508789,702.612305 812.508789,695.270874 
	C760.300964,695.270874 708.404663,695.270874 656.283691,695.270874 
	C656.283691,702.713623 656.283691,709.931946 656.283691,717.731445 
	C677.912292,717.731445 699.290039,717.731445 721.114746,717.731445 
	C721.114746,776.020813 721.114746,833.730103 721.114746,891.460083 
	C730.299622,891.460083 739.020874,891.460083 748.154785,891.460083 
	C748.154785,833.366455 748.154785,775.631592 748.154785,717.595642 
	C763.216431,717.595642 777.858032,717.595642 793.499329,717.595886 
M559.412781,575.036682 
	C569.609802,582.439087 579.737366,589.940735 590.061951,597.160645 
	C592.141113,598.614502 594.906128,599.318604 597.462280,599.810669 
	C602.671204,600.813538 607.932617,601.636475 613.208740,602.182190 
	C638.651672,604.813965 664.054749,608.466553 689.568970,609.628418 
	C731.671753,611.545776 773.719727,609.405701 815.441284,602.874390 
	C823.766479,601.571106 832.814026,601.399597 840.127686,597.833435 
	C855.954102,590.116333 869.493958,578.719849 882.970642,566.003967 
	C771.467529,593.256714 660.769775,593.278931 548.943848,565.945374 
	C552.851074,569.458496 555.803162,572.112793 559.412781,575.036682 
M637.917053,816.500000 
	C637.917053,776.101135 637.917053,735.702332 637.917053,695.280029 
	C628.626465,695.280029 620.031982,695.280029 611.330200,695.280029 
	C611.330200,760.843384 611.330200,826.176331 611.330200,891.560181 
	C620.255249,891.560181 628.842834,891.560181 637.917053,891.560181 
	C637.917053,866.705017 637.917053,842.102478 637.917053,816.500000 
M780.271912,540.836548 
	C795.738403,538.815796 811.283020,537.260559 826.655151,534.678040 
	C859.220947,529.207092 891.292847,521.545227 922.707275,511.275696 
	C924.244812,510.773041 926.400940,510.301819 927.019653,509.146698 
	C931.639404,500.521484 935.944092,491.727509 940.772339,482.143066 
	C931.490051,485.085846 923.754822,487.961853 915.802002,489.981018 
	C890.798157,496.329071 865.829895,502.909515 840.604004,508.247437 
	C829.692444,510.556427 820.178589,513.764709 811.436584,521.149048 
	C799.749451,531.021118 785.401611,536.436646 770.700867,540.902771 
	C773.583984,540.902771 776.467041,540.902771 780.271912,540.836548 
M575.331970,505.321869 
	C547.631836,498.106110 519.931763,490.890350 492.301880,483.692902 
	C495.365906,490.068848 498.933197,496.949829 501.990906,504.050262 
	C503.945740,508.589661 507.150909,510.602295 511.738770,512.059204 
	C540.510254,521.196045 569.712585,528.591980 599.480957,533.502686 
	C619.805908,536.855591 640.285339,539.272583 660.695679,542.107971 
	C660.814209,541.613647 660.932678,541.119324 661.051147,540.625000 
	C659.951660,540.137329 658.892578,539.506348 657.746704,539.183655 
	C639.912842,534.161316 624.002014,525.688232 610.349854,513.062378 
	C609.327454,512.116821 607.821472,511.448059 606.437561,511.178925 
	C596.358765,509.218750 586.253662,507.393951 575.331970,505.321869 
M574.783997,495.750061 
	C582.437805,497.184174 590.091675,498.618256 598.007812,500.101501 
	C593.959167,492.594421 590.030823,485.892792 586.709473,478.902740 
	C585.079712,475.472961 583.206116,473.747223 579.347168,472.782928 
	C555.579895,466.843811 531.868469,460.665009 508.238708,454.199493 
	C499.104614,451.700226 490.232697,448.242767 480.257172,444.891205 
	C482.358917,452.442505 484.357544,459.058258 486.000366,465.761230 
	C486.837860,469.178436 488.448883,471.092010 491.980133,472.085876 
	C519.340149,479.786407 546.648499,487.670258 574.783997,495.750061 
M948.452759,445.992554 
	C938.100159,449.448700 927.884583,453.411713 917.366516,456.255737 
	C895.317139,462.217743 873.102112,467.565887 850.980103,473.263214 
	C849.526428,473.637634 847.686646,474.509735 847.040771,475.700531 
	C842.737000,483.635071 838.709351,491.719299 834.572510,499.792908 
	C835.119629,499.792908 835.950562,499.922882 836.728271,499.774139 
	C872.360535,492.961212 907.398804,483.927551 941.532776,471.558594 
	C942.816711,471.093353 944.519409,470.094269 944.858826,468.986176 
	C947.087585,461.710571 949.015930,454.341949 950.921631,446.972473 
	C950.989990,446.708466 949.800537,446.119171 948.452759,445.992554 
M476.579315,420.080109 
	C476.917206,422.882568 477.530579,425.684998 477.531036,428.487518 
	C477.531830,433.162292 480.217316,434.643066 484.215546,436.110596 
	C512.907898,446.641602 542.231628,454.953705 571.996460,461.778168 
	C574.843994,462.431061 577.769226,462.744904 580.578918,463.203217 
	C579.054382,454.917206 577.621460,447.129211 576.397705,440.478119 
	C542.631042,430.647552 509.361267,420.961639 475.963928,411.238556 
	C476.105164,413.300934 476.306366,416.238403 476.579315,420.080109 
M855.161987,440.997131 
	C854.035217,448.397736 852.908447,455.798340 851.748291,463.418030 
	C885.825745,456.580414 918.952698,446.721680 951.457947,434.716644 
	C952.541199,434.316559 953.735962,432.749298 953.905273,431.584564 
	C954.927185,424.557831 955.665100,417.489777 956.568237,409.840607 
	C953.792969,410.791473 951.825500,411.540405 949.814331,412.143280 
	C924.263733,419.802032 898.711182,427.454498 873.148193,435.071991 
	C867.216125,436.839661 861.242859,438.469574 855.161987,440.997131 
M915.707458,390.287964 
	C896.980957,395.205719 878.244934,400.088074 859.549866,405.122650 
	C858.333618,405.450226 856.561951,406.913849 856.524109,407.905273 
	C856.259827,414.836884 856.384338,421.783386 856.384338,429.419067 
	C865.387878,427.196655 873.981628,425.476471 882.327148,422.939392 
	C906.317383,415.646271 930.215576,408.048859 954.110962,400.448578 
	C955.244690,400.087982 956.808105,398.551697 956.808777,397.561981 
	C956.813721,390.729156 956.456299,383.896088 956.210693,376.929199 
	C942.306641,381.526978 929.394104,385.796875 915.707458,390.287964 
M546.716553,398.992249 
	C523.225159,391.882751 499.733734,384.773224 475.966248,377.580170 
	C475.704132,383.209625 475.679169,389.029968 475.077728,394.790100 
	C474.681824,398.582245 476.362427,400.081940 479.598846,401.084167 
	C504.814453,408.892700 529.973206,416.886932 555.229248,424.561340 
	C561.802734,426.558746 568.657532,427.630371 575.463013,429.144958 
	C575.463013,420.920654 575.463013,413.208710 575.463013,405.734375 
	C565.854553,403.450226 556.696838,401.273224 546.716553,398.992249 
M905.485535,360.060822 
	C889.212646,364.333344 872.939697,368.605835 856.744507,372.857971 
	C856.744507,380.398834 856.744507,387.955658 856.744507,395.863220 
	C890.523010,388.586945 923.140320,379.017853 955.287170,366.695343 
	C953.999451,359.331787 952.785889,352.392487 951.567322,345.424286 
	C936.096313,350.399261 921.195190,355.190948 905.485535,360.060822 
M498.036530,374.302826 
	C523.309875,383.222168 549.104736,390.215637 575.550171,395.860229 
	C575.550171,387.655518 575.550171,380.053101 575.550171,373.635742 
	C543.654297,364.456207 512.300293,355.432617 480.426025,346.259308 
	C479.298859,352.716125 478.088348,359.650452 476.830048,366.858429 
	C483.929596,369.340485 490.614807,371.677704 498.036530,374.302826 
M520.120300,348.197357 
	C538.482361,353.195221 556.844421,358.193115 575.625244,363.304962 
	C575.625244,354.317383 575.625244,346.867523 575.625244,340.123993 
	C546.704285,332.021759 518.127136,324.015869 489.150879,315.898163 
	C487.222351,321.993683 485.103638,328.690247 482.796906,335.981201 
	C495.268890,340.088165 507.302246,344.050720 520.120300,348.197357 
M859.777710,338.202759 
	C858.647400,339.152863 856.578552,340.064240 856.537598,341.059265 
	C856.251953,347.988800 856.386719,354.935699 856.386719,362.580597 
	C888.408508,355.953766 918.957275,346.880493 949.302368,335.654663 
	C947.003174,328.502716 944.849365,321.803284 942.664307,315.006409 
	C939.944092,315.906036 937.789124,316.720398 935.578369,317.334259 
	C910.592896,324.272095 885.598999,331.179199 859.777710,338.202759 
M917.126709,313.518433 
	C924.434082,311.076233 931.741516,308.634033 939.288269,306.111847 
	C935.917236,299.088837 932.860718,292.721100 930.205566,287.189575 
	C905.921204,293.317078 882.381409,299.225891 858.881714,305.290039 
	C857.858521,305.554077 856.521057,307.222717 856.487549,308.273926 
	C856.271240,315.070465 856.376770,321.877289 856.376770,330.069550 
	C876.862671,324.515961 896.619934,319.159943 917.126709,313.518433 
M575.795532,323.323120 
	C575.795776,318.999237 575.570007,314.659760 575.867310,310.356415 
	C576.108398,306.867065 574.973999,305.630676 571.443848,304.806274 
	C556.333496,301.277527 541.304443,297.386597 526.301392,293.417542 
	C518.264526,291.291351 510.340546,288.738495 502.298309,286.358246 
	C499.064178,293.155243 496.042053,299.506805 493.012512,305.873871 
	C510.554413,313.245758 566.671082,328.736145 575.795532,328.656311 
	C575.795532,327.198517 575.795532,325.734558 575.795532,323.323120 
M916.797363,264.696808 
	C914.304871,263.072540 914.696472,257.884125 909.905518,259.104248 
	C893.081116,263.389130 876.249939,267.647766 859.453369,272.039062 
	C858.297424,272.341248 856.554138,273.622375 856.524414,274.497101 
	C856.284607,281.563538 856.390015,288.641693 856.390015,296.852356 
	C879.721802,290.539978 902.173340,284.465729 925.272034,278.216431 
	C922.112427,273.140961 919.665894,269.211029 916.797363,264.696808 
M570.402588,294.952637 
	C571.999023,295.276123 573.595520,295.599640 575.789673,296.044281 
	C575.789673,288.762604 575.919495,281.815430 575.646423,274.884186 
	C575.606506,273.871521 573.794006,272.375977 572.551819,272.046967 
	C556.058838,267.677948 539.535034,263.421326 522.969421,259.337250 
	C521.581848,258.995148 519.132446,259.581360 518.378784,260.613953 
	C514.474182,265.963562 510.960571,271.598541 506.541718,278.300262 
	C528.123779,283.988525 548.840332,289.448639 570.402588,294.952637 
M882.394836,256.905151 
	C890.140076,254.765900 897.885376,252.626663 906.410034,250.272141 
	C901.027039,244.187286 896.184814,238.597214 891.166504,233.169983 
	C890.435486,232.379379 888.742615,231.837677 887.698975,232.075760 
	C877.293823,234.449600 866.931458,237.011444 856.689636,239.488144 
	C856.689636,247.454773 856.689636,255.003265 856.689636,262.946960 
	C865.245117,260.901337 873.407410,258.949707 882.394836,256.905151 
M529.993103,245.430664 
	C528.770325,246.917862 527.547607,248.405060 525.760010,250.579208 
	C542.769897,254.873779 559.015869,258.975494 575.583130,263.158295 
	C575.583130,254.821564 575.583130,247.229187 575.583130,239.549347 
	C565.316650,237.027039 555.260254,234.420395 545.117310,232.211472 
	C543.601440,231.881363 541.254822,232.981110 540.025818,234.174576 
	C536.590393,237.510788 533.539612,241.243057 529.993103,245.430664 
M877.982117,224.764481 
	C878.934998,224.320892 879.887878,223.877319 881.479492,223.136414 
	C873.145447,216.368179 865.288818,209.987717 856.671631,202.989578 
	C856.671631,212.630234 856.671631,220.950531 856.671631,229.615997 
	C863.778320,227.997986 870.505188,226.466461 877.982117,224.764481 
M575.807983,208.819611 
	C575.733093,207.260208 575.658264,205.700821 575.525208,202.929169 
	C566.735657,210.080887 558.788025,216.547592 549.979126,223.715073 
	C558.251709,225.656540 565.165405,227.292755 572.088135,228.889511 
	C573.171326,229.139359 574.295837,229.209824 575.807983,229.419678 
	C575.807983,222.681595 575.807983,216.215759 575.807983,208.819611 
M622.744019,613.419861 
	C622.867432,613.446716 622.990906,613.473572 623.114319,613.500366 
	C623.063416,613.498108 623.012451,613.495850 622.744019,613.419861 
z"/>
<path fill="#FDB814" opacity="1.000000" stroke="none" 
	d="
M637.039856,205.936661 
	C649.643982,216.594833 657.342041,229.958313 661.771423,245.294907 
	C662.633423,248.279633 662.952393,251.517303 662.957031,254.639160 
	C663.029053,303.132080 662.866821,351.625916 663.136108,400.117432 
	C663.185547,409.028687 663.969360,418.152466 666.032288,426.791809 
	C670.633118,446.059540 686.304871,458.795166 706.066101,461.059418 
	C719.006592,462.542114 731.670471,462.006653 743.590515,456.330780 
	C759.152039,448.920929 767.432556,436.150726 769.113525,419.220032 
	C769.966919,410.624847 770.244873,401.943451 770.266479,393.299713 
	C770.376282,349.306335 770.664551,305.308197 770.119141,261.321289 
	C769.940491,246.913864 774.250183,234.625000 782.091858,223.098648 
	C792.580933,207.680847 815.873291,191.185928 834.003052,186.468628 
	C834.003052,188.194260 834.003052,189.819656 834.003052,191.445038 
	C834.002930,269.267151 834.012512,347.089294 833.994873,424.911407 
	C833.991150,441.369812 831.565552,457.337219 824.197998,472.293701 
	C812.747253,495.539429 793.401306,509.107635 769.072021,515.442200 
	C732.450745,524.977234 695.576721,525.196716 659.315430,513.707642 
	C625.735596,503.068176 606.383545,479.580872 601.134338,444.715027 
	C600.296875,439.152222 600.035950,433.456268 600.030945,427.821442 
	C599.960693,348.999512 599.981323,270.177521 599.979797,191.355530 
	C599.979797,189.866791 599.979797,188.378052 599.979797,186.264465 
	C613.674988,190.687393 625.823975,197.025940 637.039856,205.936661 
z"/>
<path fill="#18428F" opacity="1.000000" stroke="none" 
	d="
M792.525024,147.173752 
	C791.668274,183.615479 769.889648,212.096786 735.266113,221.328552 
	C692.269287,232.792923 647.125305,205.106598 639.972595,159.720444 
	C633.870667,121.001564 659.475830,82.016907 701.961609,74.369446 
	C738.192078,67.847916 771.842712,86.066910 786.333008,119.733322 
	C789.922363,128.072845 790.527405,137.696793 792.525024,147.173752 
z"/>
<path fill="#1A4390" opacity="1.000000" stroke="none" 
	d="
M420.069305,819.000000 
	C420.069305,777.545166 420.069305,736.590332 420.069305,695.167786 
	C425.862976,695.167786 431.358612,694.697571 436.707703,695.378540 
	C439.154388,695.690002 441.887390,697.816101 443.515686,699.886047 
	C469.688354,733.157959 495.699219,766.557068 521.756592,799.919739 
	C533.908264,815.478210 546.080627,831.020325 558.584961,847.006287 
	C558.584961,796.266541 558.584961,746.015808 558.584961,695.406860 
	C566.039795,695.406860 573.621704,695.406860 581.607178,695.406860 
	C581.607178,760.518860 581.607178,825.874146 581.607178,891.784851 
	C576.736267,891.784851 571.708374,892.333557 566.885925,891.575500 
	C564.070801,891.133057 560.841614,889.185730 559.060425,886.922424 
	C529.087952,848.837341 499.316101,810.594299 469.495514,772.389648 
	C461.264099,761.843994 453.018799,751.309143 444.040039,739.822937 
	C444.040039,791.085083 444.040039,841.087769 444.040039,891.453491 
	C435.993439,891.453491 428.284485,891.453491 420.069305,891.453491 
	C420.069305,867.384277 420.069305,843.442139 420.069305,819.000000 
z"/>
<path fill="#1A4490" opacity="1.000000" stroke="none" 
	d="
M1025.695068,695.913513 
	C1033.215332,695.494263 1040.735718,695.075073 1048.646729,694.634033 
	C1048.646729,760.582458 1048.646729,825.935852 1048.646729,891.777527 
	C1043.666992,891.777527 1038.608887,892.394714 1033.808472,891.548950 
	C1030.869873,891.031128 1027.601685,888.837036 1025.713379,886.429504 
	C988.638977,839.157959 951.748108,791.742432 914.802063,744.370117 
	C913.831177,743.125244 912.662415,742.034668 910.931091,740.164917 
	C910.931091,791.162781 910.931091,841.180908 910.931091,891.508057 
	C902.984131,891.508057 895.401794,891.508057 887.449585,891.508057 
	C887.449585,826.304932 887.449585,761.081848 887.449585,695.300598 
	C892.960144,695.300598 898.746887,694.867920 904.410278,695.514954 
	C906.655151,695.771423 909.096741,698.056702 910.652100,700.042358 
	C937.967285,734.913574 965.130798,769.903503 992.391235,804.817688 
	C1003.301392,818.791138 1014.366272,832.643738 1025.345581,846.532227 
	C1025.345581,797.019348 1025.345581,747.516174 1025.702881,697.465942 
	C1026.168457,696.797668 1026.381470,696.583069 1026.369141,696.569336 
	C1026.161011,696.335938 1025.924927,696.127441 1025.695068,695.913513 
z"/>
<path fill="#1A4390" opacity="1.000000" stroke="none" 
	d="
M244.836823,841.178833 
	C243.482071,831.111877 241.302399,821.436646 241.192810,811.738037 
	C240.774796,774.744568 241.024017,737.743652 241.024002,700.745483 
	C241.024002,699.089355 241.024002,697.433228 241.024002,695.412903 
	C249.920685,695.412903 258.632019,695.412903 267.900452,695.412903 
	C267.900452,697.227966 267.899536,699.006409 267.900574,700.784790 
	C267.923767,740.115906 267.716705,779.449341 268.099426,818.776917 
	C268.227905,831.981323 272.403473,844.231934 281.474731,854.309692 
	C291.940887,865.937256 305.350739,870.518372 320.683258,870.485474 
	C347.117950,870.428772 365.216278,856.684814 371.518890,831.074768 
	C373.006134,825.031311 373.122650,818.547729 373.146729,812.263855 
	C373.288544,775.266235 373.216492,738.267822 373.216461,701.269653 
	C373.216461,699.452881 373.216461,697.636108 373.216461,695.434509 
	C382.163055,695.434509 390.855377,695.434509 399.877747,695.434509 
	C399.923828,696.432617 400.007080,697.389832 400.006592,698.346985 
	C399.985626,739.511292 400.755890,780.696411 399.682831,821.833435 
	C398.787018,856.176758 375.828949,885.091370 340.235748,892.011353 
	C318.870819,896.165100 298.299377,894.436646 278.922638,883.880005 
	C261.732849,874.514771 250.882034,860.000427 244.836823,841.178833 
z"/>
<path fill="#1A4390" opacity="1.000000" stroke="none" 
	d="
M1169.840820,879.860596 
	C1150.962891,893.983154 1129.933594,896.100220 1107.901489,892.445862 
	C1090.219604,889.512939 1075.123535,881.311218 1062.149048,868.393799 
	C1064.748901,864.150085 1067.127441,859.836670 1069.926025,855.815247 
	C1072.989624,851.412964 1076.562134,850.882446 1081.121582,854.002869 
	C1089.592651,859.800537 1097.537598,866.432983 1107.742798,869.254333 
	C1123.408569,873.585205 1138.622559,873.627014 1152.569458,864.119507 
	C1172.406616,850.596680 1171.142700,821.790527 1149.740967,811.104126 
	C1139.195679,805.838623 1127.301025,803.347961 1116.307373,798.886047 
	C1106.721558,794.995422 1096.896606,791.077087 1088.340698,785.413635 
	C1076.389648,777.502930 1071.735352,765.165588 1070.858643,750.826294 
	C1069.080566,721.750427 1089.318481,702.281616 1110.946655,695.795654 
	C1136.404785,688.160950 1170.623901,695.820496 1187.176147,713.450378 
	C1185.339966,717.056519 1183.530518,720.748108 1181.598389,724.374329 
	C1178.182251,730.785400 1175.096313,731.350342 1168.730347,727.681702 
	C1162.159546,723.895081 1155.628418,719.597351 1148.506226,717.306335 
	C1135.802979,713.220215 1122.900635,713.703003 1110.815796,720.258972 
	C1101.075317,725.543091 1096.321533,733.943848 1095.961792,744.965271 
	C1095.604004,755.926697 1101.126099,763.695862 1110.447876,767.964783 
	C1122.159668,773.328186 1134.442261,777.466492 1146.555298,781.925415 
	C1156.846924,785.713867 1167.203491,789.363525 1175.770874,796.499756 
	C1190.998657,809.183838 1194.115723,825.820374 1190.774658,844.322876 
	C1188.203491,858.561768 1181.425537,870.467102 1169.840820,879.860596 
z"/>
<path fill="#1A4490" opacity="1.000000" stroke="none" 
	d="
M521.770874,535.275391 
	C518.882263,531.230957 516.221497,527.464844 513.560730,523.698792 
	C579.941772,542.871582 647.243713,553.181396 716.163391,553.177002 
	C784.999512,553.172607 852.200012,542.832703 918.741638,523.698120 
	C914.066589,530.004272 909.402954,536.318970 904.708252,542.610474 
	C903.620728,544.067871 902.240295,545.334229 901.314148,546.879944 
	C896.672729,554.626221 888.252563,554.692932 880.980957,556.565308 
	C845.911804,565.595337 810.254211,571.485901 774.200867,574.604187 
	C740.659912,577.505188 707.013245,577.938171 673.408875,575.700256 
	C630.488953,572.842102 588.242798,565.908813 546.425598,555.553528 
	C534.038940,552.486145 528.849609,543.743958 521.770874,535.275391 
z"/>
<path fill="#1A4490" opacity="1.000000" stroke="none" 
	d="
M792.999512,717.595764 
	C777.858032,717.595642 763.216431,717.595642 748.154785,717.595642 
	C748.154785,775.631592 748.154785,833.366455 748.154785,891.460083 
	C739.020874,891.460083 730.299622,891.460083 721.114746,891.460083 
	C721.114746,833.730103 721.114746,776.020813 721.114746,717.731445 
	C699.290039,717.731445 677.912292,717.731445 656.283691,717.731445 
	C656.283691,709.931946 656.283691,702.713623 656.283691,695.270874 
	C708.404663,695.270874 760.300964,695.270874 812.508789,695.270874 
	C812.508789,702.612305 812.508789,709.831787 812.508789,717.595886 
	C806.075806,717.595886 799.787598,717.595886 792.999512,717.595764 
z"/>
<path fill="#1A4490" opacity="1.000000" stroke="none" 
	d="
M559.083984,574.901855 
	C555.803162,572.112793 552.851074,569.458496 548.943848,565.945374 
	C660.769775,593.278931 771.467529,593.256714 882.970642,566.003967 
	C869.493958,578.719849 855.954102,590.116333 840.127686,597.833435 
	C832.814026,601.399597 823.766479,601.571106 815.441284,602.874390 
	C773.719727,609.405701 731.671753,611.545776 689.568970,609.628418 
	C664.054749,608.466553 638.651672,604.813965 613.208740,602.182190 
	C607.932617,601.636475 602.671204,600.813538 597.462280,599.810669 
	C594.906128,599.318604 592.141113,598.614502 590.061951,597.160645 
	C579.737366,589.940735 569.609802,582.439087 559.083984,574.901855 
z"/>
<path fill="#194390" opacity="1.000000" stroke="none" 
	d="
M637.917053,817.000000 
	C637.917053,842.102478 637.917053,866.705017 637.917053,891.560181 
	C628.842834,891.560181 620.255249,891.560181 611.330200,891.560181 
	C611.330200,826.176331 611.330200,760.843384 611.330200,695.280029 
	C620.031982,695.280029 628.626465,695.280029 637.917053,695.280029 
	C637.917053,735.702332 637.917053,776.101135 637.917053,817.000000 
z"/>
<path fill="#1B4490" opacity="1.000000" stroke="none" 
	d="
M832.847534,889.978333 
	C832.758423,888.990051 832.591431,888.001709 832.591431,887.013428 
	C832.592773,823.990479 832.607727,760.967468 832.927979,697.401245 
	C833.318237,696.750244 833.491516,696.570984 833.471741,696.546204 
	C833.307922,696.341553 833.108398,696.165588 832.919678,695.980896 
	C836.076843,695.669373 839.229675,695.160034 842.392151,695.090332 
	C847.860657,694.969604 853.335205,695.121704 858.773315,695.722107 
	C858.492981,698.221313 858.032593,700.157654 858.031128,702.094360 
	C857.992126,754.826843 858.000061,807.559265 857.999939,860.291748 
	C857.999939,868.775513 857.881958,877.261719 858.058167,885.741821 
	C858.125305,888.971619 857.114685,890.156616 853.805481,890.058167 
	C846.824829,889.850464 839.834106,889.984497 832.847534,889.978333 
z"/>
<path fill="#1A4490" opacity="1.000000" stroke="none" 
	d="
M779.811035,540.869629 
	C776.467041,540.902771 773.583984,540.902771 770.700867,540.902771 
	C785.401611,536.436646 799.749451,531.021118 811.436584,521.149048 
	C820.178589,513.764709 829.692444,510.556427 840.604004,508.247437 
	C865.829895,502.909515 890.798157,496.329071 915.802002,489.981018 
	C923.754822,487.961853 931.490051,485.085846 940.772339,482.143066 
	C935.944092,491.727509 931.639404,500.521484 927.019653,509.146698 
	C926.400940,510.301819 924.244812,510.773041 922.707275,511.275696 
	C891.292847,521.545227 859.220947,529.207092 826.655151,534.678040 
	C811.283020,537.260559 795.738403,538.815796 779.811035,540.869629 
z"/>
<path fill="#1A4490" opacity="1.000000" stroke="none" 
	d="
M575.744385,505.424133 
	C586.253662,507.393951 596.358765,509.218750 606.437561,511.178925 
	C607.821472,511.448059 609.327454,512.116821 610.349854,513.062378 
	C624.002014,525.688232 639.912842,534.161316 657.746704,539.183655 
	C658.892578,539.506348 659.951660,540.137329 661.051147,540.625000 
	C660.932678,541.119324 660.814209,541.613647 660.695679,542.107971 
	C640.285339,539.272583 619.805908,536.855591 599.480957,533.502686 
	C569.712585,528.591980 540.510254,521.196045 511.738770,512.059204 
	C507.150909,510.602295 503.945740,508.589661 501.990906,504.050262 
	C498.933197,496.949829 495.365906,490.068848 492.301880,483.692902 
	C519.931763,490.890350 547.631836,498.106110 575.744385,505.424133 
z"/>
<path fill="#1A4490" opacity="1.000000" stroke="none" 
	d="
M574.378418,495.623718 
	C546.648499,487.670258 519.340149,479.786407 491.980133,472.085876 
	C488.448883,471.092010 486.837860,469.178436 486.000366,465.761230 
	C484.357544,459.058258 482.358917,452.442505 480.257172,444.891205 
	C490.232697,448.242767 499.104614,451.700226 508.238708,454.199493 
	C531.868469,460.665009 555.579895,466.843811 579.347168,472.782928 
	C583.206116,473.747223 585.079712,475.472961 586.709473,478.902740 
	C590.030823,485.892792 593.959167,492.594421 598.007812,500.101501 
	C590.091675,498.618256 582.437805,497.184174 574.378418,495.623718 
z"/>
<path fill="#1A4490" opacity="1.000000" stroke="none" 
	d="
M948.825012,445.837036 
	C949.800537,446.119171 950.989990,446.708466 950.921631,446.972473 
	C949.015930,454.341949 947.087585,461.710571 944.858826,468.986176 
	C944.519409,470.094269 942.816711,471.093353 941.532776,471.558594 
	C907.398804,483.927551 872.360535,492.961212 836.728271,499.774139 
	C835.950562,499.922882 835.119629,499.792908 834.572510,499.792908 
	C838.709351,491.719299 842.737000,483.635071 847.040771,475.700531 
	C847.686646,474.509735 849.526428,473.637634 850.980103,473.263214 
	C873.102112,467.565887 895.317139,462.217743 917.366516,456.255737 
	C927.884583,453.411713 938.100159,449.448700 948.825012,445.837036 
z"/>
<path fill="#1A4490" opacity="1.000000" stroke="none" 
	d="
M476.543427,419.627991 
	C476.306366,416.238403 476.105164,413.300934 475.963928,411.238556 
	C509.361267,420.961639 542.631042,430.647552 576.397705,440.478119 
	C577.621460,447.129211 579.054382,454.917206 580.578918,463.203217 
	C577.769226,462.744904 574.843994,462.431061 571.996460,461.778168 
	C542.231628,454.953705 512.907898,446.641602 484.215546,436.110596 
	C480.217316,434.643066 477.531830,433.162292 477.531036,428.487518 
	C477.530579,425.684998 476.917206,422.882568 476.543427,419.627991 
z"/>
<path fill="#1A4490" opacity="1.000000" stroke="none" 
	d="
M855.225281,440.580017 
	C861.242859,438.469574 867.216125,436.839661 873.148193,435.071991 
	C898.711182,427.454498 924.263733,419.802032 949.814331,412.143280 
	C951.825500,411.540405 953.792969,410.791473 956.568237,409.840607 
	C955.665100,417.489777 954.927185,424.557831 953.905273,431.584564 
	C953.735962,432.749298 952.541199,434.316559 951.457947,434.716644 
	C918.952698,446.721680 885.825745,456.580414 851.748291,463.418030 
	C852.908447,455.798340 854.035217,448.397736 855.225281,440.580017 
z"/>
<path fill="#1B4490" opacity="1.000000" stroke="none" 
	d="
M916.094543,390.177368 
	C929.394104,385.796875 942.306641,381.526978 956.210693,376.929199 
	C956.456299,383.896088 956.813721,390.729156 956.808777,397.561981 
	C956.808105,398.551697 955.244690,400.087982 954.110962,400.448578 
	C930.215576,408.048859 906.317383,415.646271 882.327148,422.939392 
	C873.981628,425.476471 865.387878,427.196655 856.384338,429.419067 
	C856.384338,421.783386 856.259827,414.836884 856.524109,407.905273 
	C856.561951,406.913849 858.333618,405.450226 859.549866,405.122650 
	C878.244934,400.088074 896.980957,395.205719 916.094543,390.177368 
z"/>
<path fill="#1B4490" opacity="1.000000" stroke="none" 
	d="
M547.127808,399.044250 
	C556.696838,401.273224 565.854553,403.450226 575.463013,405.734375 
	C575.463013,413.208710 575.463013,420.920654 575.463013,429.144958 
	C568.657532,427.630371 561.802734,426.558746 555.229248,424.561340 
	C529.973206,416.886932 504.814453,408.892700 479.598846,401.084167 
	C476.362427,400.081940 474.681824,398.582245 475.077728,394.790100 
	C475.679169,389.029968 475.704132,383.209625 475.966248,377.580170 
	C499.733734,384.773224 523.225159,391.882751 547.127808,399.044250 
z"/>
<path fill="#1A4490" opacity="1.000000" stroke="none" 
	d="
M905.889832,360.021729 
	C921.195190,355.190948 936.096313,350.399261 951.567322,345.424286 
	C952.785889,352.392487 953.999451,359.331787 955.287170,366.695343 
	C923.140320,379.017853 890.523010,388.586945 856.744507,395.863220 
	C856.744507,387.955658 856.744507,380.398834 856.744507,372.857971 
	C872.939697,368.605835 889.212646,364.333344 905.889832,360.021729 
z"/>
<path fill="#1A4490" opacity="1.000000" stroke="none" 
	d="
M497.668274,374.158875 
	C490.614807,371.677704 483.929596,369.340485 476.830048,366.858429 
	C478.088348,359.650452 479.298859,352.716125 480.426025,346.259308 
	C512.300293,355.432617 543.654297,364.456207 575.550171,373.635742 
	C575.550171,380.053101 575.550171,387.655518 575.550171,395.860229 
	C549.104736,390.215637 523.309875,383.222168 497.668274,374.158875 
z"/>
<path fill="#1A4490" opacity="1.000000" stroke="none" 
	d="
M519.727966,348.105316 
	C507.302246,344.050720 495.268890,340.088165 482.796906,335.981201 
	C485.103638,328.690247 487.222351,321.993683 489.150879,315.898163 
	C518.127136,324.015869 546.704285,332.021759 575.625244,340.123993 
	C575.625244,346.867523 575.625244,354.317383 575.625244,363.304962 
	C556.844421,358.193115 538.482361,353.195221 519.727966,348.105316 
z"/>
<path fill="#1B4490" opacity="1.000000" stroke="none" 
	d="
M860.192505,338.148621 
	C885.598999,331.179199 910.592896,324.272095 935.578369,317.334259 
	C937.789124,316.720398 939.944092,315.906036 942.664307,315.006409 
	C944.849365,321.803284 947.003174,328.502716 949.302368,335.654663 
	C918.957275,346.880493 888.408508,355.953766 856.386719,362.580597 
	C856.386719,354.935699 856.251953,347.988800 856.537598,341.059265 
	C856.578552,340.064240 858.647400,339.152863 860.192505,338.148621 
z"/>
<path fill="#1B4490" opacity="1.000000" stroke="none" 
	d="
M916.751953,313.661163 
	C896.619934,319.159943 876.862671,324.515961 856.376770,330.069550 
	C856.376770,321.877289 856.271240,315.070465 856.487549,308.273926 
	C856.521057,307.222717 857.858521,305.554077 858.881714,305.290039 
	C882.381409,299.225891 905.921204,293.317078 930.205566,287.189575 
	C932.860718,292.721100 935.917236,299.088837 939.288269,306.111847 
	C931.741516,308.634033 924.434082,311.076233 916.751953,313.661163 
z"/>
<path fill="#1B4490" opacity="1.000000" stroke="none" 
	d="
M575.795532,323.796844 
	C575.795532,325.734558 575.795532,327.198517 575.795532,328.656311 
	C566.671082,328.736145 510.554413,313.245758 493.012512,305.873871 
	C496.042053,299.506805 499.064178,293.155243 502.298309,286.358246 
	C510.340546,288.738495 518.264526,291.291351 526.301392,293.417542 
	C541.304443,297.386597 556.333496,301.277527 571.443848,304.806274 
	C574.973999,305.630676 576.108398,306.867065 575.867310,310.356415 
	C575.570007,314.659760 575.795776,318.999237 575.795532,323.796844 
z"/>
<path fill="#1C4691" opacity="1.000000" stroke="none" 
	d="
M808.005981,614.068604 
	C792.726440,618.685669 777.625061,624.053040 762.123230,627.733765 
	C741.782654,632.563354 720.888184,632.939026 700.091370,631.692932 
	C674.368042,630.151733 649.462585,624.568848 625.596741,614.003418 
	C627.592590,614.119995 629.593994,614.178894 631.582825,614.369263 
	C633.559631,614.558472 635.516296,615.012390 637.494568,615.123291 
	C666.701538,616.761230 695.913147,619.640259 725.118469,619.583557 
	C750.471497,619.534302 775.817627,616.146606 801.168152,614.252563 
	C803.157532,614.103943 805.157532,614.097961 807.600220,614.058960 
	C808.047852,614.092346 808.005981,614.068604 808.005981,614.068604 
z"/>
<path fill="#1B4591" opacity="1.000000" stroke="none" 
	d="
M917.008423,264.988953 
	C919.665894,269.211029 922.112427,273.140961 925.272034,278.216431 
	C902.173340,284.465729 879.721802,290.539978 856.390015,296.852356 
	C856.390015,288.641693 856.284607,281.563538 856.524414,274.497101 
	C856.554138,273.622375 858.297424,272.341248 859.453369,272.039062 
	C876.249939,267.647766 893.081116,263.389130 909.905518,259.104248 
	C914.696472,257.884125 914.304871,263.072540 917.008423,264.988953 
z"/>
<path fill="#1B4490" opacity="1.000000" stroke="none" 
	d="
M569.979736,294.930695 
	C548.840332,289.448639 528.123779,283.988525 506.541718,278.300262 
	C510.960571,271.598541 514.474182,265.963562 518.378784,260.613953 
	C519.132446,259.581360 521.581848,258.995148 522.969421,259.337250 
	C539.535034,263.421326 556.058838,267.677948 572.551819,272.046967 
	C573.794006,272.375977 575.606506,273.871521 575.646423,274.884186 
	C575.919495,281.815430 575.789673,288.762604 575.789673,296.044281 
	C573.595520,295.599640 571.999023,295.276123 569.979736,294.930695 
z"/>
<path fill="#1C4591" opacity="1.000000" stroke="none" 
	d="
M881.982300,256.951599 
	C873.407410,258.949707 865.245117,260.901337 856.689636,262.946960 
	C856.689636,255.003265 856.689636,247.454773 856.689636,239.488144 
	C866.931458,237.011444 877.293823,234.449600 887.698975,232.075760 
	C888.742615,231.837677 890.435486,232.379379 891.166504,233.169983 
	C896.184814,238.597214 901.027039,244.187286 906.410034,250.272141 
	C897.885376,252.626663 890.140076,254.765900 881.982300,256.951599 
z"/>
<path fill="#1B4490" opacity="1.000000" stroke="none" 
	d="
M530.165039,245.124832 
	C533.539612,241.243057 536.590393,237.510788 540.025818,234.174576 
	C541.254822,232.981110 543.601440,231.881363 545.117310,232.211472 
	C555.260254,234.420395 565.316650,237.027039 575.583130,239.549347 
	C575.583130,247.229187 575.583130,254.821564 575.583130,263.158295 
	C559.015869,258.975494 542.769897,254.873779 525.760010,250.579208 
	C527.547607,248.405060 528.770325,246.917862 530.165039,245.124832 
z"/>
<path fill="#083587" opacity="1.000000" stroke="none" 
	d="
M832.888550,890.421143 
	C839.834106,889.984497 846.824829,889.850464 853.805481,890.058167 
	C857.114685,890.156616 858.125305,888.971619 858.058167,885.741821 
	C857.881958,877.261719 857.999939,868.775513 857.999939,860.291748 
	C858.000061,807.559265 857.992126,754.826843 858.031128,702.094360 
	C858.032593,700.157654 858.492981,698.221313 859.115234,696.017029 
	C859.592590,697.903381 859.782288,700.057434 859.782837,702.211548 
	C859.799438,763.544312 859.796875,824.877136 859.797485,886.209900 
	C859.797485,887.853088 859.797546,889.496216 859.797546,892.138428 
	C850.538452,891.699219 841.734070,891.281555 832.888550,890.421143 
z"/>
<path fill="#214993" opacity="1.000000" stroke="none" 
	d="
M877.607056,224.849701 
	C870.505188,226.466461 863.778320,227.997986 856.671631,229.615997 
	C856.671631,220.950531 856.671631,212.630234 856.671631,202.989578 
	C865.288818,209.987717 873.145447,216.368179 881.479492,223.136414 
	C879.887878,223.877319 878.934998,224.320892 877.607056,224.849701 
z"/>
<path fill="#1F4792" opacity="1.000000" stroke="none" 
	d="
M575.807983,209.284760 
	C575.807983,216.215759 575.807983,222.681595 575.807983,229.419678 
	C574.295837,229.209824 573.171326,229.139359 572.088135,228.889511 
	C565.165405,227.292755 558.251709,225.656540 549.979126,223.715073 
	C558.788025,216.547592 566.735657,210.080887 575.525208,202.929169 
	C575.658264,205.700821 575.733093,207.260208 575.807983,209.284760 
z"/>
<path fill="#1C4691" opacity="1.000000" stroke="none" 
	d="
M808.051575,614.117371 
	C808.243225,613.930237 808.431152,613.718079 808.619080,613.505920 
	C808.576843,613.555054 808.543762,613.627563 808.490479,613.648499 
	C808.370544,613.695496 808.240479,613.716980 808.060303,613.908691 
	C808.005981,614.068604 808.047852,614.092346 808.051575,614.117371 
z"/>
<path fill="#1C4691" opacity="1.000000" stroke="none" 
	d="
M622.852783,613.456726 
	C623.012451,613.495850 623.063416,613.498108 623.114319,613.500366 
	C622.990906,613.473572 622.867432,613.446716 622.852783,613.456726 
z"/>
<path fill="#083587" opacity="1.000000" stroke="none" 
	d="
M832.812439,696.239868 
	C833.108398,696.165588 833.307922,696.341553 833.471741,696.546204 
	C833.491516,696.570984 833.318237,696.750244 833.047729,696.947632 
	C832.809143,696.857971 832.757202,696.678467 832.812439,696.239868 
z"/>
<path fill="#083587" opacity="1.000000" stroke="none" 
	d="
M1025.565918,696.207703 
	C1025.924927,696.127441 1026.161011,696.335938 1026.369141,696.569336 
	C1026.381470,696.583069 1026.168457,696.797668 1025.833496,697.020264 
	C1025.549927,696.914978 1025.493286,696.708435 1025.565918,696.207703 
z"/>
</svg>