<svg xmlns="http://www.w3.org/2000/svg" viewBox="0 0 1440 320"><path fill="#0099ff" fill-opacity="0.15" d="M0,128L12,117.3C24,107,48,85,72,96C96,107,120,149,144,170.7C168,192,192,192,216,181.3C240,171,264,149,288,133.3C312,117,336,107,360,133.3C384,160,408,224,432,218.7C456,213,480,139,504,128C528,117,552,171,576,213.3C600,256,624,288,648,282.7C672,277,696,235,720,213.3C744,192,768,192,792,176C816,160,840,128,864,101.3C888,75,912,53,936,53.3C960,53,984,75,1008,117.3C1032,160,1056,224,1080,218.7C1104,213,1128,139,1152,101.3C1176,64,1200,64,1224,96C1248,128,1272,192,1296,197.3C1320,203,1344,149,1368,149.3C1392,149,1416,203,1428,229.3L1440,256L1440,320L1428,320C1416,320,1392,320,1368,320C1344,320,1320,320,1296,320C1272,320,1248,320,1224,320C1200,320,1176,320,1152,320C1128,320,1104,320,1080,320C1056,320,1032,320,1008,320C984,320,960,320,936,320C912,320,888,320,864,320C840,320,816,320,792,320C768,320,744,320,720,320C696,320,672,320,648,320C624,320,600,320,576,320C552,320,528,320,504,320C480,320,456,320,432,320C408,320,384,320,360,320C336,320,312,320,288,320C264,320,240,320,216,320C192,320,168,320,144,320C120,320,96,320,72,320C48,320,24,320,12,320L0,320Z"></path></svg>
